{
	"asset":{
		"generator":"Khronos glTF Blender I/O v3.5.30",
		"version":"2.0"
	},
	"extensionsUsed":[
		"KHR_materials_specular",
		"KHR_materials_ior"
	],
	"scene":0,
	"scenes":[
		{
			"name":"Scene",
			"nodes":[
				0,
				1,
				2,
				3,
				4,
				5,
				6
			]
		}
	],
	"nodes":[
		{
			"mesh":0,
			"name":"tq4_ARD-node.001",
			"rotation":[
				0.7071068286895752,
				0,
				0,
				0.7071068286895752
			],
			"translation":[
				0,
				0.11103016138076782,
				-0.04896360635757446
			]
		},
		{
			"mesh":1,
			"name":"Plano.001",
			"rotation":[
				0,
				-1,
				0,
				7.549790126404332e-08
			],
			"translation":[
				0.2566809356212616,
				0.21043723821640015,
				0.05657307803630829
			]
		},
		{
			"mesh":2,
			"name":"Plano.002",
			"rotation":[
				0,
				-1,
				0,
				7.549790126404332e-08
			],
			"translation":[
				0.2566809356212616,
				0.21043723821640015,
				0.05657307803630829
			]
		},
		{
			"mesh":3,
			"name":"Plano.003",
			"rotation":[
				0,
				-1,
				0,
				7.549790126404332e-08
			],
			"translation":[
				-0.25790390372276306,
				0.21043723821640015,
				0.05657307803630829
			]
		},
		{
			"mesh":4,
			"name":"Texto",
			"rotation":[
				0,
				-0.7071068286895752,
				0.7071068286895752,
				5.338509012631221e-08
			],
			"translation":[
				0.04338943213224411,
				0.0038514435291290283,
				-0.2704751789569855
			]
		},
		{
			"mesh":5,
			"name":"Texto.001",
			"rotation":[
				0,
				-0.7071068286895752,
				0.7071068286895752,
				5.338509012631221e-08
			],
			"translation":[
				0.6240575313568115,
				0.0038514435291290283,
				0.0014356151223182678
			]
		},
		{
			"mesh":6,
			"name":"Texto.002",
			"rotation":[
				0.5,
				0.5000000596046448,
				-0.5,
				0.5
			],
			"translation":[
				-0.45995843410491943,
				0.07161158323287964,
				-0.2541637718677521
			]
		}
	],
	"materials":[
		{
			"doubleSided":true,
			"extensions":{
				"KHR_materials_specular":{
					"specularColorFactor":[
						0,
						0,
						0
					]
				},
				"KHR_materials_ior":{
					"ior":0
				}
			},
			"name":"tq4_ARD_front.001",
			"pbrMetallicRoughness":{
				"baseColorTexture":{
					"index":0
				},
				"metallicFactor":0,
				"roughnessFactor":0.5
			}
		},
		{
			"doubleSided":true,
			"extensions":{
				"KHR_materials_specular":{
					"specularColorFactor":[
						0,
						0,
						0
					]
				},
				"KHR_materials_ior":{
					"ior":0
				}
			},
			"name":"tq4_ARD_back.001",
			"pbrMetallicRoughness":{
				"baseColorFactor":[
					0.996078372001648,
					0.9019607901573181,
					0.6627451181411743,
					1
				],
				"metallicFactor":0,
				"roughnessFactor":0.5
			}
		},
		{
			"doubleSided":true,
			"extensions":{
				"KHR_materials_specular":{
					"specularColorFactor":[
						0,
						0,
						0
					]
				},
				"KHR_materials_ior":{
					"ior":0
				}
			},
			"name":"tq4_ARD_edge.001",
			"pbrMetallicRoughness":{
				"baseColorTexture":{
					"index":1
				},
				"metallicFactor":0,
				"roughnessFactor":0.5
			}
		},
		{
			"doubleSided":true,
			"name":"Material.001",
			"pbrMetallicRoughness":{
				"baseColorFactor":[
					0.4902293384075165,
					0.021092573180794716,
					0,
					1
				],
				"metallicFactor":0
			}
		}
	],
	"meshes":[
		{
			"name":"tq4_ARD-geom.001",
			"primitives":[
				{
					"attributes":{
						"POSITION":0,
						"TEXCOORD_0":1,
						"NORMAL":2
					},
					"indices":3,
					"material":0
				},
				{
					"attributes":{
						"POSITION":4,
						"TEXCOORD_0":5,
						"NORMAL":6
					},
					"indices":7,
					"material":1
				},
				{
					"attributes":{
						"POSITION":8,
						"TEXCOORD_0":9,
						"NORMAL":10
					},
					"indices":11,
					"material":2
				}
			]
		},
		{
			"name":"Plano",
			"primitives":[
				{
					"attributes":{
						"POSITION":12,
						"TEXCOORD_0":13,
						"NORMAL":14
					},
					"indices":15,
					"material":3
				}
			]
		},
		{
			"name":"Plano.001",
			"primitives":[
				{
					"attributes":{
						"POSITION":16,
						"TEXCOORD_0":17,
						"NORMAL":18
					},
					"indices":19,
					"material":3
				}
			]
		},
		{
			"name":"Plano.002",
			"primitives":[
				{
					"attributes":{
						"POSITION":20,
						"TEXCOORD_0":21,
						"NORMAL":22
					},
					"indices":23,
					"material":3
				}
			]
		},
		{
			"name":"Texto",
			"primitives":[
				{
					"attributes":{
						"POSITION":24,
						"TEXCOORD_0":25,
						"NORMAL":26
					},
					"indices":27,
					"material":3
				}
			]
		},
		{
			"name":"Texto.001",
			"primitives":[
				{
					"attributes":{
						"POSITION":28,
						"TEXCOORD_0":29,
						"NORMAL":30
					},
					"indices":31,
					"material":3
				}
			]
		},
		{
			"name":"Texto.002",
			"primitives":[
				{
					"attributes":{
						"POSITION":32,
						"TEXCOORD_0":33,
						"NORMAL":34
					},
					"indices":35,
					"material":3
				}
			]
		}
	],
	"textures":[
		{
			"sampler":0,
			"source":0
		},
		{
			"sampler":0,
			"source":1
		}
	],
	"images":[
		{
			"bufferView":4,
			"mimeType":"image/jpeg",
			"name":"1-01"
		},
		{
			"bufferView":13,
			"mimeType":"image/png",
			"name":"tq4_ARD-I1"
		}
	],
	"accessors":[
		{
			"bufferView":0,
			"componentType":5126,
			"count":2070,
			"max":[
				0.49090349674224854,
				0.19998203217983246,
				0.10874124616384506
			],
			"min":[
				-0.4922780990600586,
				-0.10400426387786865,
				-0.07484622299671173
			],
			"type":"VEC3"
		},
		{
			"bufferView":1,
			"componentType":5126,
			"count":2070,
			"type":"VEC2"
		},
		{
			"bufferView":2,
			"componentType":5126,
			"count":2070,
			"type":"VEC3"
		},
		{
			"bufferView":3,
			"componentType":5123,
			"count":5064,
			"type":"SCALAR"
		},
		{
			"bufferView":5,
			"componentType":5126,
			"count":1915,
			"max":[
				0.4889611005783081,
				0.19839449226856232,
				0.10669030249118805
			],
			"min":[
				-0.4902992248535156,
				-0.10087746381759644,
				-0.07484622299671173
			],
			"type":"VEC3"
		},
		{
			"bufferView":6,
			"componentType":5126,
			"count":1915,
			"type":"VEC2"
		},
		{
			"bufferView":7,
			"componentType":5126,
			"count":1915,
			"type":"VEC3"
		},
		{
			"bufferView":8,
			"componentType":5123,
			"count":5064,
			"type":"SCALAR"
		},
		{
			"bufferView":9,
			"componentType":5126,
			"count":3445,
			"max":[
				0.49090349674224854,
				0.19998203217983246,
				0.10874124616384506
			],
			"min":[
				-0.49227166175842285,
				-0.10400426387786865,
				-0.07484622299671173
			],
			"type":"VEC3"
		},
		{
			"bufferView":10,
			"componentType":5126,
			"count":3445,
			"type":"VEC2"
		},
		{
			"bufferView":11,
			"componentType":5126,
			"count":3445,
			"type":"VEC3"
		},
		{
			"bufferView":12,
			"componentType":5123,
			"count":7584,
			"type":"SCALAR"
		},
		{
			"bufferView":14,
			"componentType":5126,
			"count":144,
			"max":[
				0.7484315633773804,
				-0.20501761138439178,
				0.27914565801620483
			],
			"min":[
				-0.23103608191013336,
				-0.20674856007099152,
				0.2130943238735199
			],
			"type":"VEC3"
		},
		{
			"bufferView":15,
			"componentType":5126,
			"count":144,
			"type":"VEC2"
		},
		{
			"bufferView":16,
			"componentType":5126,
			"count":144,
			"type":"VEC3"
		},
		{
			"bufferView":17,
			"componentType":5123,
			"count":216,
			"type":"SCALAR"
		},
		{
			"bufferView":18,
			"componentType":5126,
			"count":144,
			"max":[
				-0.2508041262626648,
				-0.20501761138439178,
				0.19929426908493042
			],
			"min":[
				-0.31685540080070496,
				-0.20674856007099152,
				-0.09432485699653625
			],
			"type":"VEC3"
		},
		{
			"bufferView":19,
			"componentType":5126,
			"count":144,
			"type":"VEC2"
		},
		{
			"bufferView":20,
			"componentType":5126,
			"count":144,
			"type":"VEC3"
		},
		{
			"bufferView":21,
			"componentType":5123,
			"count":216,
			"type":"SCALAR"
		},
		{
			"bufferView":22,
			"componentType":5126,
			"count":144,
			"max":[
				0.2329626977443695,
				-0.025855276733636856,
				0.27914556860923767
			],
			"min":[
				0.2312317192554474,
				-0.20644253492355347,
				0.2130943238735199
			],
			"type":"VEC3"
		},
		{
			"bufferView":23,
			"componentType":5126,
			"count":144,
			"type":"VEC2"
		},
		{
			"bufferView":24,
			"componentType":5126,
			"count":144,
			"type":"VEC3"
		},
		{
			"bufferView":25,
			"componentType":5123,
			"count":216,
			"type":"SCALAR"
		},
		{
			"bufferView":26,
			"componentType":5126,
			"count":1698,
			"max":[
				0.04128599911928177,
				0.0010000000474974513,
				0.00025277145323343575
			],
			"min":[
				0.001011085812933743,
				-0.0010000000474974513,
				-0.019407229498028755
			],
			"type":"VEC3"
		},
		{
			"bufferView":27,
			"componentType":5126,
			"count":1698,
			"type":"VEC2"
		},
		{
			"bufferView":28,
			"componentType":5126,
			"count":1698,
			"type":"VEC3"
		},
		{
			"bufferView":29,
			"componentType":5123,
			"count":5064,
			"type":"SCALAR"
		},
		{
			"bufferView":30,
			"componentType":5126,
			"count":912,
			"max":[
				0.03651142865419388,
				0.0010000000474974513,
				0.00025277145323343575
			],
			"min":[
				0.0009549143142066896,
				-0.0010000000474974513,
				-0.019407229498028755
			],
			"type":"VEC3"
		},
		{
			"bufferView":31,
			"componentType":5126,
			"count":912,
			"type":"VEC2"
		},
		{
			"bufferView":32,
			"componentType":5126,
			"count":912,
			"type":"VEC3"
		},
		{
			"bufferView":33,
			"componentType":5123,
			"count":2688,
			"type":"SCALAR"
		},
		{
			"bufferView":34,
			"componentType":5126,
			"count":1180,
			"max":[
				0.04128599911928177,
				0.0010000000474974513,
				0.00025277145323343575
			],
			"min":[
				0.005673314444720745,
				-0.0010000000474974513,
				-0.019407229498028755
			],
			"type":"VEC3"
		},
		{
			"bufferView":35,
			"componentType":5126,
			"count":1180,
			"type":"VEC2"
		},
		{
			"bufferView":36,
			"componentType":5126,
			"count":1180,
			"type":"VEC3"
		},
		{
			"bufferView":37,
			"componentType":5123,
			"count":3504,
			"type":"SCALAR"
		}
	],
	"bufferViews":[
		{
			"buffer":0,
			"byteLength":24840,
			"byteOffset":0,
			"target":34962
		},
		{
			"buffer":0,
			"byteLength":16560,
			"byteOffset":24840,
			"target":34962
		},
		{
			"buffer":0,
			"byteLength":24840,
			"byteOffset":41400,
			"target":34962
		},
		{
			"buffer":0,
			"byteLength":10128,
			"byteOffset":66240,
			"target":34963
		},
		{
			"buffer":0,
			"byteLength":579100,
			"byteOffset":76368
		},
		{
			"buffer":0,
			"byteLength":22980,
			"byteOffset":655468,
			"target":34962
		},
		{
			"buffer":0,
			"byteLength":15320,
			"byteOffset":678448,
			"target":34962
		},
		{
			"buffer":0,
			"byteLength":22980,
			"byteOffset":693768,
			"target":34962
		},
		{
			"buffer":0,
			"byteLength":10128,
			"byteOffset":716748,
			"target":34963
		},
		{
			"buffer":0,
			"byteLength":41340,
			"byteOffset":726876,
			"target":34962
		},
		{
			"buffer":0,
			"byteLength":27560,
			"byteOffset":768216,
			"target":34962
		},
		{
			"buffer":0,
			"byteLength":41340,
			"byteOffset":795776,
			"target":34962
		},
		{
			"buffer":0,
			"byteLength":15168,
			"byteOffset":837116,
			"target":34963
		},
		{
			"buffer":0,
			"byteLength":767,
			"byteOffset":852284
		},
		{
			"buffer":0,
			"byteLength":1728,
			"byteOffset":853052,
			"target":34962
		},
		{
			"buffer":0,
			"byteLength":1152,
			"byteOffset":854780,
			"target":34962
		},
		{
			"buffer":0,
			"byteLength":1728,
			"byteOffset":855932,
			"target":34962
		},
		{
			"buffer":0,
			"byteLength":432,
			"byteOffset":857660,
			"target":34963
		},
		{
			"buffer":0,
			"byteLength":1728,
			"byteOffset":858092,
			"target":34962
		},
		{
			"buffer":0,
			"byteLength":1152,
			"byteOffset":859820,
			"target":34962
		},
		{
			"buffer":0,
			"byteLength":1728,
			"byteOffset":860972,
			"target":34962
		},
		{
			"buffer":0,
			"byteLength":432,
			"byteOffset":862700,
			"target":34963
		},
		{
			"buffer":0,
			"byteLength":1728,
			"byteOffset":863132,
			"target":34962
		},
		{
			"buffer":0,
			"byteLength":1152,
			"byteOffset":864860,
			"target":34962
		},
		{
			"buffer":0,
			"byteLength":1728,
			"byteOffset":866012,
			"target":34962
		},
		{
			"buffer":0,
			"byteLength":432,
			"byteOffset":867740,
			"target":34963
		},
		{
			"buffer":0,
			"byteLength":20376,
			"byteOffset":868172,
			"target":34962
		},
		{
			"buffer":0,
			"byteLength":13584,
			"byteOffset":888548,
			"target":34962
		},
		{
			"buffer":0,
			"byteLength":20376,
			"byteOffset":902132,
			"target":34962
		},
		{
			"buffer":0,
			"byteLength":10128,
			"byteOffset":922508,
			"target":34963
		},
		{
			"buffer":0,
			"byteLength":10944,
			"byteOffset":932636,
			"target":34962
		},
		{
			"buffer":0,
			"byteLength":7296,
			"byteOffset":943580,
			"target":34962
		},
		{
			"buffer":0,
			"byteLength":10944,
			"byteOffset":950876,
			"target":34962
		},
		{
			"buffer":0,
			"byteLength":5376,
			"byteOffset":961820,
			"target":34963
		},
		{
			"buffer":0,
			"byteLength":14160,
			"byteOffset":967196,
			"target":34962
		},
		{
			"buffer":0,
			"byteLength":9440,
			"byteOffset":981356,
			"target":34962
		},
		{
			"buffer":0,
			"byteLength":14160,
			"byteOffset":990796,
			"target":34962
		},
		{
			"buffer":0,
			"byteLength":7008,
			"byteOffset":1004956,
			"target":34963
		}
	],
	"samplers":[
		{
			"magFilter":9729,
			"minFilter":9987
		}
	],
	"buffers":[
		{
			"byteLength":1011964,
			"uri":"data:application/octet-stream;base64,"
		}
	]
}
